<mxfile host="app.diagrams.net" modified="2024-06-22T23:02:11.354Z" agent="Mozilla/5.0 (Windows NT 10.0; Win64; x64; rv:127.0) Gecko/20100101 Firefox/127.0" etag="QDqOY6SQpyeqOIPyifhx" version="24.6.2" type="device">
  <diagram name="Strona-1" id="81xb35la6gWieccNXSsV">
    <mxGraphModel dx="1880" dy="753" grid="1" gridSize="10" guides="1" tooltips="1" connect="1" arrows="1" fold="1" page="1" pageScale="1" pageWidth="827" pageHeight="1169" math="0" shadow="0">
      <root>
        <mxCell id="0" />
        <mxCell id="1" parent="0" />
        <mxCell id="KeUxQgTWrOYnJ-gQ4LqN-1" value="Book" style="swimlane;fontStyle=1;align=center;verticalAlign=top;childLayout=stackLayout;horizontal=1;startSize=26;horizontalStack=0;resizeParent=1;resizeParentMax=0;resizeLast=0;collapsible=1;marginBottom=0;whiteSpace=wrap;html=1;" vertex="1" parent="1">
          <mxGeometry x="370" y="410" width="220" height="220" as="geometry" />
        </mxCell>
        <mxCell id="KeUxQgTWrOYnJ-gQ4LqN-2" value="&lt;div&gt;- bookId: long&lt;/div&gt;&lt;div&gt;- author: string&lt;/div&gt;&lt;div&gt;- title: string&lt;/div&gt;&lt;div&gt;- category: string&lt;/div&gt;&lt;div&gt;- yearOfPublication: string&lt;br&gt;&lt;/div&gt;&lt;div&gt;- description: string&lt;br&gt;&lt;/div&gt;" style="text;strokeColor=none;fillColor=none;align=left;verticalAlign=top;spacingLeft=4;spacingRight=4;overflow=hidden;rotatable=0;points=[[0,0.5],[1,0.5]];portConstraint=eastwest;whiteSpace=wrap;html=1;" vertex="1" parent="KeUxQgTWrOYnJ-gQ4LqN-1">
          <mxGeometry y="26" width="220" height="104" as="geometry" />
        </mxCell>
        <mxCell id="KeUxQgTWrOYnJ-gQ4LqN-3" value="" style="line;strokeWidth=1;fillColor=none;align=left;verticalAlign=middle;spacingTop=-1;spacingLeft=3;spacingRight=3;rotatable=0;labelPosition=right;points=[];portConstraint=eastwest;strokeColor=inherit;" vertex="1" parent="KeUxQgTWrOYnJ-gQ4LqN-1">
          <mxGeometry y="130" width="220" height="8" as="geometry" />
        </mxCell>
        <mxCell id="KeUxQgTWrOYnJ-gQ4LqN-4" value="&lt;div&gt;+ findAllItems(): List&amp;lt;Books&amp;gt;&lt;br&gt;&lt;/div&gt;&lt;div&gt;+ addItem(Object obj): void&lt;/div&gt;&lt;div&gt;+ deleteItem(Object obj):void&lt;/div&gt;&lt;div&gt;+ updateItem(Object obj): void &lt;br&gt;&lt;/div&gt;&lt;div&gt;+ findById(Long id): void&lt;br&gt;&lt;/div&gt;" style="text;strokeColor=none;fillColor=none;align=left;verticalAlign=top;spacingLeft=4;spacingRight=4;overflow=hidden;rotatable=0;points=[[0,0.5],[1,0.5]];portConstraint=eastwest;whiteSpace=wrap;html=1;" vertex="1" parent="KeUxQgTWrOYnJ-gQ4LqN-1">
          <mxGeometry y="138" width="220" height="82" as="geometry" />
        </mxCell>
        <mxCell id="KeUxQgTWrOYnJ-gQ4LqN-5" value="User" style="swimlane;fontStyle=1;align=center;verticalAlign=top;childLayout=stackLayout;horizontal=1;startSize=26;horizontalStack=0;resizeParent=1;resizeParentMax=0;resizeLast=0;collapsible=1;marginBottom=0;whiteSpace=wrap;html=1;" vertex="1" parent="1">
          <mxGeometry x="20" y="320" width="160" height="260" as="geometry" />
        </mxCell>
        <mxCell id="KeUxQgTWrOYnJ-gQ4LqN-6" value="&lt;div&gt;- userId: long&lt;/div&gt;&lt;div&gt;- firstName: string&lt;/div&gt;&lt;div&gt;- lastName: string&lt;/div&gt;&lt;div&gt;- phoneNumber: string&lt;br&gt;&lt;/div&gt;&lt;div&gt;- email: string&lt;/div&gt;&lt;div&gt;- password: string&lt;br&gt;&lt;/div&gt;" style="text;strokeColor=none;fillColor=none;align=left;verticalAlign=top;spacingLeft=4;spacingRight=4;overflow=hidden;rotatable=0;points=[[0,0.5],[1,0.5]];portConstraint=eastwest;whiteSpace=wrap;html=1;" vertex="1" parent="KeUxQgTWrOYnJ-gQ4LqN-5">
          <mxGeometry y="26" width="160" height="104" as="geometry" />
        </mxCell>
        <mxCell id="KeUxQgTWrOYnJ-gQ4LqN-7" value="" style="line;strokeWidth=1;fillColor=none;align=left;verticalAlign=middle;spacingTop=-1;spacingLeft=3;spacingRight=3;rotatable=0;labelPosition=right;points=[];portConstraint=eastwest;strokeColor=inherit;" vertex="1" parent="KeUxQgTWrOYnJ-gQ4LqN-5">
          <mxGeometry y="130" width="160" height="8" as="geometry" />
        </mxCell>
        <mxCell id="KeUxQgTWrOYnJ-gQ4LqN-8" value="&lt;div&gt;+ findAllItems(): List&amp;lt;User&amp;gt;&lt;br&gt;&lt;/div&gt;&lt;div&gt;+ addItem(Object obj): void&lt;/div&gt;&lt;div&gt;+ deleteItem(Object obj):void&lt;/div&gt;&lt;div&gt;+ updateItem(Object obj): void &lt;br&gt;&lt;/div&gt;&lt;div&gt;+ findById(Long id): void&lt;br&gt;&lt;/div&gt;" style="text;strokeColor=none;fillColor=none;align=left;verticalAlign=top;spacingLeft=4;spacingRight=4;overflow=hidden;rotatable=0;points=[[0,0.5],[1,0.5]];portConstraint=eastwest;whiteSpace=wrap;html=1;" vertex="1" parent="KeUxQgTWrOYnJ-gQ4LqN-5">
          <mxGeometry y="138" width="160" height="122" as="geometry" />
        </mxCell>
        <mxCell id="KeUxQgTWrOYnJ-gQ4LqN-10" value="Exchange" style="swimlane;fontStyle=1;align=center;verticalAlign=top;childLayout=stackLayout;horizontal=1;startSize=26;horizontalStack=0;resizeParent=1;resizeParentMax=0;resizeLast=0;collapsible=1;marginBottom=0;whiteSpace=wrap;html=1;" vertex="1" parent="1">
          <mxGeometry x="650" y="630" width="160" height="240" as="geometry" />
        </mxCell>
        <mxCell id="KeUxQgTWrOYnJ-gQ4LqN-11" value="&lt;div&gt;- exchangeId: long&lt;/div&gt;&lt;div&gt;- exchangeDate: date&lt;br&gt;&lt;/div&gt;&lt;div&gt;- status: string&lt;br&gt;&lt;/div&gt;" style="text;strokeColor=none;fillColor=none;align=left;verticalAlign=top;spacingLeft=4;spacingRight=4;overflow=hidden;rotatable=0;points=[[0,0.5],[1,0.5]];portConstraint=eastwest;whiteSpace=wrap;html=1;" vertex="1" parent="KeUxQgTWrOYnJ-gQ4LqN-10">
          <mxGeometry y="26" width="160" height="74" as="geometry" />
        </mxCell>
        <mxCell id="KeUxQgTWrOYnJ-gQ4LqN-12" value="" style="line;strokeWidth=1;fillColor=none;align=left;verticalAlign=middle;spacingTop=-1;spacingLeft=3;spacingRight=3;rotatable=0;labelPosition=right;points=[];portConstraint=eastwest;strokeColor=inherit;" vertex="1" parent="KeUxQgTWrOYnJ-gQ4LqN-10">
          <mxGeometry y="100" width="160" height="8" as="geometry" />
        </mxCell>
        <mxCell id="KeUxQgTWrOYnJ-gQ4LqN-13" value="&lt;div&gt;+ findAllItems(): List&amp;lt;Exchange&amp;gt;&lt;br&gt;&lt;/div&gt;&lt;div&gt;+ addItem(Object obj): void&lt;/div&gt;&lt;div&gt;+ deleteItem(Object obj):void&lt;/div&gt;&lt;div&gt;+ updateItem(Object obj): void &lt;br&gt;&lt;/div&gt;&lt;div&gt;+ findById(Long id): void&lt;br&gt;&lt;/div&gt;" style="text;strokeColor=none;fillColor=none;align=left;verticalAlign=top;spacingLeft=4;spacingRight=4;overflow=hidden;rotatable=0;points=[[0,0.5],[1,0.5]];portConstraint=eastwest;whiteSpace=wrap;html=1;" vertex="1" parent="KeUxQgTWrOYnJ-gQ4LqN-10">
          <mxGeometry y="108" width="160" height="132" as="geometry" />
        </mxCell>
        <mxCell id="KeUxQgTWrOYnJ-gQ4LqN-15" value="Notification" style="swimlane;fontStyle=1;align=center;verticalAlign=top;childLayout=stackLayout;horizontal=1;startSize=26;horizontalStack=0;resizeParent=1;resizeParentMax=0;resizeLast=0;collapsible=1;marginBottom=0;whiteSpace=wrap;html=1;" vertex="1" parent="1">
          <mxGeometry x="240" y="110" width="160" height="240" as="geometry" />
        </mxCell>
        <mxCell id="KeUxQgTWrOYnJ-gQ4LqN-16" value="&lt;div&gt;- notificationId: long&lt;/div&gt;&lt;div&gt;- type: string&lt;br&gt;&lt;/div&gt;&lt;div&gt;- message: string&lt;/div&gt;&lt;div&gt;- dataReceived: bool&lt;br&gt;&lt;/div&gt;" style="text;strokeColor=none;fillColor=none;align=left;verticalAlign=top;spacingLeft=4;spacingRight=4;overflow=hidden;rotatable=0;points=[[0,0.5],[1,0.5]];portConstraint=eastwest;whiteSpace=wrap;html=1;" vertex="1" parent="KeUxQgTWrOYnJ-gQ4LqN-15">
          <mxGeometry y="26" width="160" height="74" as="geometry" />
        </mxCell>
        <mxCell id="KeUxQgTWrOYnJ-gQ4LqN-17" value="" style="line;strokeWidth=1;fillColor=none;align=left;verticalAlign=middle;spacingTop=-1;spacingLeft=3;spacingRight=3;rotatable=0;labelPosition=right;points=[];portConstraint=eastwest;strokeColor=inherit;" vertex="1" parent="KeUxQgTWrOYnJ-gQ4LqN-15">
          <mxGeometry y="100" width="160" height="8" as="geometry" />
        </mxCell>
        <mxCell id="KeUxQgTWrOYnJ-gQ4LqN-18" value="&lt;div&gt;+ findAllItems(): List&amp;lt;Notification&amp;gt;&lt;br&gt;&lt;/div&gt;&lt;div&gt;+ addItem(Object obj): void&lt;/div&gt;&lt;div&gt;+ deleteItem(Object obj):void&lt;/div&gt;&lt;div&gt;+ updateItem(Object obj): void &lt;br&gt;&lt;/div&gt;&lt;div&gt;+ findById(Long id): void&lt;br&gt;&lt;/div&gt;" style="text;strokeColor=none;fillColor=none;align=left;verticalAlign=top;spacingLeft=4;spacingRight=4;overflow=hidden;rotatable=0;points=[[0,0.5],[1,0.5]];portConstraint=eastwest;whiteSpace=wrap;html=1;" vertex="1" parent="KeUxQgTWrOYnJ-gQ4LqN-15">
          <mxGeometry y="108" width="160" height="132" as="geometry" />
        </mxCell>
        <mxCell id="KeUxQgTWrOYnJ-gQ4LqN-19" value="Review" style="swimlane;fontStyle=1;align=center;verticalAlign=top;childLayout=stackLayout;horizontal=1;startSize=26;horizontalStack=0;resizeParent=1;resizeParentMax=0;resizeLast=0;collapsible=1;marginBottom=0;whiteSpace=wrap;html=1;" vertex="1" parent="1">
          <mxGeometry x="20" width="160" height="240" as="geometry" />
        </mxCell>
        <mxCell id="KeUxQgTWrOYnJ-gQ4LqN-20" value="&lt;div&gt;- reviewId: long&lt;/div&gt;&lt;div&gt;- rating: int&lt;/div&gt;&lt;div&gt;- text: string&lt;br&gt;&lt;/div&gt;&lt;div&gt;- reviewDate: date&lt;br&gt;&lt;/div&gt;" style="text;strokeColor=none;fillColor=none;align=left;verticalAlign=top;spacingLeft=4;spacingRight=4;overflow=hidden;rotatable=0;points=[[0,0.5],[1,0.5]];portConstraint=eastwest;whiteSpace=wrap;html=1;" vertex="1" parent="KeUxQgTWrOYnJ-gQ4LqN-19">
          <mxGeometry y="26" width="160" height="74" as="geometry" />
        </mxCell>
        <mxCell id="KeUxQgTWrOYnJ-gQ4LqN-21" value="" style="line;strokeWidth=1;fillColor=none;align=left;verticalAlign=middle;spacingTop=-1;spacingLeft=3;spacingRight=3;rotatable=0;labelPosition=right;points=[];portConstraint=eastwest;strokeColor=inherit;" vertex="1" parent="KeUxQgTWrOYnJ-gQ4LqN-19">
          <mxGeometry y="100" width="160" height="8" as="geometry" />
        </mxCell>
        <mxCell id="KeUxQgTWrOYnJ-gQ4LqN-22" value="&lt;div&gt;+ findAllItems(): List&amp;lt;Review&amp;gt;&lt;br&gt;&lt;/div&gt;&lt;div&gt;+ addItem(Object obj): void&lt;/div&gt;&lt;div&gt;+ deleteItem(Object obj):void&lt;/div&gt;&lt;div&gt;+ updateItem(Object obj): void &lt;br&gt;&lt;/div&gt;&lt;div&gt;+ findById(Long id): void&lt;br&gt;&lt;/div&gt;" style="text;strokeColor=none;fillColor=none;align=left;verticalAlign=top;spacingLeft=4;spacingRight=4;overflow=hidden;rotatable=0;points=[[0,0.5],[1,0.5]];portConstraint=eastwest;whiteSpace=wrap;html=1;" vertex="1" parent="KeUxQgTWrOYnJ-gQ4LqN-19">
          <mxGeometry y="108" width="160" height="132" as="geometry" />
        </mxCell>
        <mxCell id="KeUxQgTWrOYnJ-gQ4LqN-23" value="&lt;p style=&quot;margin:0px;margin-top:4px;text-align:center;&quot;&gt;&lt;i&gt;&amp;lt;&amp;lt;Interface&amp;gt;&amp;gt;&lt;/i&gt;&lt;br&gt;&lt;b&gt;MainService&lt;/b&gt;&lt;/p&gt;&lt;hr size=&quot;1&quot; style=&quot;border-style:solid;&quot;&gt;&lt;hr size=&quot;1&quot; style=&quot;border-style:solid;&quot;&gt;&lt;div&gt;+ findAllItems(): List&amp;lt;Object&amp;gt;&lt;br&gt;&lt;/div&gt;&lt;div&gt;+ addItem(Object obj): void&lt;/div&gt;&lt;div&gt;+ deleteItem(Object obj):void&lt;/div&gt;&lt;div&gt;+ updateItem(Object obj): void &lt;br&gt;&lt;/div&gt;&lt;div&gt;+ findById(Long id): void&lt;br&gt;&lt;/div&gt;&lt;p style=&quot;margin:0px;margin-left:4px;&quot;&gt;&lt;/p&gt;" style="verticalAlign=top;align=left;overflow=fill;html=1;whiteSpace=wrap;" vertex="1" parent="1">
          <mxGeometry x="620" y="20" width="190" height="170" as="geometry" />
        </mxCell>
        <mxCell id="KeUxQgTWrOYnJ-gQ4LqN-24" value="" style="endArrow=open;endFill=1;endSize=12;html=1;rounded=0;entryX=0;entryY=0.5;entryDx=0;entryDy=0;" edge="1" parent="1" source="KeUxQgTWrOYnJ-gQ4LqN-8" target="KeUxQgTWrOYnJ-gQ4LqN-1">
          <mxGeometry width="160" relative="1" as="geometry">
            <mxPoint x="180" y="400" as="sourcePoint" />
            <mxPoint x="360" y="400" as="targetPoint" />
          </mxGeometry>
        </mxCell>
        <mxCell id="KeUxQgTWrOYnJ-gQ4LqN-25" value="posiada" style="text;html=1;align=center;verticalAlign=middle;resizable=0;points=[];autosize=1;strokeColor=none;fillColor=none;" vertex="1" parent="1">
          <mxGeometry x="230" y="490" width="70" height="30" as="geometry" />
        </mxCell>
        <mxCell id="KeUxQgTWrOYnJ-gQ4LqN-26" value="" style="endArrow=open;endFill=1;endSize=12;html=1;rounded=0;entryX=0.502;entryY=1.032;entryDx=0;entryDy=0;entryPerimeter=0;exitX=0.5;exitY=0;exitDx=0;exitDy=0;" edge="1" parent="1" source="KeUxQgTWrOYnJ-gQ4LqN-5" target="KeUxQgTWrOYnJ-gQ4LqN-22">
          <mxGeometry width="160" relative="1" as="geometry">
            <mxPoint x="360" y="320" as="sourcePoint" />
            <mxPoint x="520" y="320" as="targetPoint" />
          </mxGeometry>
        </mxCell>
        <mxCell id="KeUxQgTWrOYnJ-gQ4LqN-27" value="tworzy" style="text;html=1;align=center;verticalAlign=middle;resizable=0;points=[];autosize=1;strokeColor=none;fillColor=none;" vertex="1" parent="1">
          <mxGeometry x="110" y="258" width="60" height="30" as="geometry" />
        </mxCell>
        <mxCell id="KeUxQgTWrOYnJ-gQ4LqN-28" value="" style="endArrow=open;endFill=1;endSize=12;html=1;rounded=0;exitX=1;exitY=0;exitDx=0;exitDy=0;entryX=0;entryY=0.5;entryDx=0;entryDy=0;" edge="1" parent="1" source="KeUxQgTWrOYnJ-gQ4LqN-5" target="KeUxQgTWrOYnJ-gQ4LqN-18">
          <mxGeometry width="160" relative="1" as="geometry">
            <mxPoint x="360" y="320" as="sourcePoint" />
            <mxPoint x="520" y="320" as="targetPoint" />
          </mxGeometry>
        </mxCell>
        <mxCell id="KeUxQgTWrOYnJ-gQ4LqN-29" value="otrzymuje" style="text;html=1;align=center;verticalAlign=middle;resizable=0;points=[];autosize=1;strokeColor=none;fillColor=none;" vertex="1" parent="1">
          <mxGeometry x="140" y="270" width="80" height="30" as="geometry" />
        </mxCell>
        <mxCell id="KeUxQgTWrOYnJ-gQ4LqN-30" value="" style="endArrow=none;html=1;edgeStyle=orthogonalEdgeStyle;rounded=0;exitX=0.432;exitY=1.004;exitDx=0;exitDy=0;exitPerimeter=0;" edge="1" parent="1" source="KeUxQgTWrOYnJ-gQ4LqN-4" target="KeUxQgTWrOYnJ-gQ4LqN-11">
          <mxGeometry relative="1" as="geometry">
            <mxPoint x="380" y="730" as="sourcePoint" />
            <mxPoint x="540" y="730" as="targetPoint" />
          </mxGeometry>
        </mxCell>
        <mxCell id="KeUxQgTWrOYnJ-gQ4LqN-33" value="" style="endArrow=open;endFill=1;endSize=12;html=1;rounded=0;exitX=0.968;exitY=1.029;exitDx=0;exitDy=0;exitPerimeter=0;entryX=0.007;entryY=0.744;entryDx=0;entryDy=0;entryPerimeter=0;" edge="1" parent="1" source="KeUxQgTWrOYnJ-gQ4LqN-8" target="KeUxQgTWrOYnJ-gQ4LqN-13">
          <mxGeometry width="160" relative="1" as="geometry">
            <mxPoint x="180" y="650" as="sourcePoint" />
            <mxPoint x="340" y="650" as="targetPoint" />
          </mxGeometry>
        </mxCell>
        <mxCell id="KeUxQgTWrOYnJ-gQ4LqN-34" value="uczestniczy w" style="text;html=1;align=center;verticalAlign=middle;resizable=0;points=[];autosize=1;strokeColor=none;fillColor=none;" vertex="1" parent="1">
          <mxGeometry x="470" y="630" width="100" height="30" as="geometry" />
        </mxCell>
        <mxCell id="KeUxQgTWrOYnJ-gQ4LqN-35" value="obejmuje" style="text;html=1;align=center;verticalAlign=middle;resizable=0;points=[];autosize=1;strokeColor=none;fillColor=none;" vertex="1" parent="1">
          <mxGeometry x="580" y="700" width="70" height="30" as="geometry" />
        </mxCell>
        <mxCell id="KeUxQgTWrOYnJ-gQ4LqN-36" value="uczestniczy" style="text;html=1;align=center;verticalAlign=middle;resizable=0;points=[];autosize=1;strokeColor=none;fillColor=none;" vertex="1" parent="1">
          <mxGeometry x="275" y="680" width="90" height="30" as="geometry" />
        </mxCell>
        <mxCell id="KeUxQgTWrOYnJ-gQ4LqN-37" value="" style="endArrow=block;dashed=1;endFill=0;endSize=12;html=1;rounded=0;entryX=0.75;entryY=1;entryDx=0;entryDy=0;exitX=0.75;exitY=0;exitDx=0;exitDy=0;" edge="1" parent="1" source="KeUxQgTWrOYnJ-gQ4LqN-10" target="KeUxQgTWrOYnJ-gQ4LqN-23">
          <mxGeometry width="160" relative="1" as="geometry">
            <mxPoint x="500" y="550" as="sourcePoint" />
            <mxPoint x="660" y="550" as="targetPoint" />
          </mxGeometry>
        </mxCell>
        <mxCell id="KeUxQgTWrOYnJ-gQ4LqN-38" value="" style="endArrow=block;dashed=1;endFill=0;endSize=12;html=1;rounded=0;entryX=0.5;entryY=1;entryDx=0;entryDy=0;exitX=1;exitY=0;exitDx=0;exitDy=0;" edge="1" parent="1" source="KeUxQgTWrOYnJ-gQ4LqN-1" target="KeUxQgTWrOYnJ-gQ4LqN-23">
          <mxGeometry width="160" relative="1" as="geometry">
            <mxPoint x="780" y="640" as="sourcePoint" />
            <mxPoint x="773" y="200" as="targetPoint" />
          </mxGeometry>
        </mxCell>
        <mxCell id="KeUxQgTWrOYnJ-gQ4LqN-39" value="" style="endArrow=block;dashed=1;endFill=0;endSize=12;html=1;rounded=0;entryX=0.25;entryY=1;entryDx=0;entryDy=0;exitX=1.002;exitY=0.781;exitDx=0;exitDy=0;exitPerimeter=0;" edge="1" parent="1" source="KeUxQgTWrOYnJ-gQ4LqN-6" target="KeUxQgTWrOYnJ-gQ4LqN-23">
          <mxGeometry width="160" relative="1" as="geometry">
            <mxPoint x="600" y="420" as="sourcePoint" />
            <mxPoint x="725" y="200" as="targetPoint" />
            <Array as="points">
              <mxPoint x="460" y="360" />
            </Array>
          </mxGeometry>
        </mxCell>
        <mxCell id="KeUxQgTWrOYnJ-gQ4LqN-40" value="" style="endArrow=block;dashed=1;endFill=0;endSize=12;html=1;rounded=0;entryX=0;entryY=0.75;entryDx=0;entryDy=0;exitX=1.013;exitY=0.014;exitDx=0;exitDy=0;exitPerimeter=0;" edge="1" parent="1" source="KeUxQgTWrOYnJ-gQ4LqN-18" target="KeUxQgTWrOYnJ-gQ4LqN-23">
          <mxGeometry width="160" relative="1" as="geometry">
            <mxPoint x="600" y="420" as="sourcePoint" />
            <mxPoint x="725" y="200" as="targetPoint" />
          </mxGeometry>
        </mxCell>
        <mxCell id="KeUxQgTWrOYnJ-gQ4LqN-41" value="" style="endArrow=block;dashed=1;endFill=0;endSize=12;html=1;rounded=0;entryX=0;entryY=0.5;entryDx=0;entryDy=0;exitX=1;exitY=0.5;exitDx=0;exitDy=0;" edge="1" parent="1" source="KeUxQgTWrOYnJ-gQ4LqN-20" target="KeUxQgTWrOYnJ-gQ4LqN-23">
          <mxGeometry width="160" relative="1" as="geometry">
            <mxPoint x="300" y="92" as="sourcePoint" />
            <mxPoint x="518" y="20" as="targetPoint" />
          </mxGeometry>
        </mxCell>
      </root>
    </mxGraphModel>
  </diagram>
</mxfile>
